<svg width="16" height="16" viewBox="0 0 16 16" fill="none" xmlns="http://www.w3.org/2000/svg">
<path fill-rule="evenodd" clip-rule="evenodd" d="M8 0C3.58172 0 0 3.58173 0 8C0 12.4183 3.58172 16 8 16C12.4183 16 16 12.4183 16 8C16 3.58173 12.4183 0 8 0ZM6.24191 3.75887C6.69703 3.73816 6.84245 3.7331 8.00122 3.7331H7.99988C9.15901 3.7331 9.3039 3.73816 9.75901 3.75887C10.2132 3.77967 10.5235 3.85159 10.7955 3.9571C11.0764 4.06599 11.3137 4.21176 11.551 4.4491C11.7884 4.68626 11.9341 4.92431 12.0435 5.20493C12.1484 5.47622 12.2204 5.78627 12.2417 6.24049C12.2621 6.69561 12.2675 6.84104 12.2675 7.99981C12.2675 9.15857 12.2621 9.30365 12.2417 9.75875C12.2204 10.2128 12.1484 10.5229 12.0435 10.7943C11.9341 11.0749 11.7884 11.3129 11.551 11.5501C11.314 11.7874 11.0763 11.9335 10.7957 12.0425C10.5243 12.148 10.2139 12.2199 9.75963 12.2407C9.30452 12.2615 9.15954 12.2665 8.00068 12.2665C6.84201 12.2665 6.69667 12.2615 6.24156 12.2407C5.78742 12.2199 5.47728 12.148 5.20581 12.0425C4.92536 11.9335 4.68732 11.7874 4.45025 11.5501C4.213 11.3129 4.06722 11.0749 3.95815 10.7942C3.85273 10.5229 3.78082 10.2129 3.75993 9.75866C3.73931 9.30355 3.73415 9.15857 3.73415 7.99981C3.73415 6.84104 3.73949 6.69552 3.75984 6.24041C3.78029 5.78635 3.85229 5.47622 3.95807 5.20485C4.0674 4.92431 4.21318 4.68626 4.45051 4.4491C4.68767 4.21185 4.92572 4.06608 5.20634 3.9571C5.47764 3.85159 5.78768 3.77967 6.24191 3.75887ZM7.61506 4.50218L7.85561 4.50213L7.99781 4.50218C9.13703 4.50218 9.27205 4.50627 9.72192 4.52672C10.1379 4.54573 10.3637 4.61524 10.5141 4.67364C10.7132 4.75098 10.8552 4.84342 11.0044 4.99276C11.1538 5.1421 11.2462 5.28432 11.3237 5.48344C11.3821 5.63365 11.4517 5.85944 11.4707 6.27545C11.4911 6.72523 11.4955 6.86034 11.4955 7.99901C11.4955 9.1377 11.4911 9.27281 11.4707 9.72259C11.4516 10.1386 11.3821 10.3644 11.3237 10.5146C11.2464 10.7137 11.1538 10.8555 11.0044 11.0047C10.8551 11.1541 10.7133 11.2465 10.5141 11.3238C10.3639 11.3825 10.1379 11.4519 9.72192 11.4709C9.27214 11.4913 9.13703 11.4958 7.99781 11.4958C6.85851 11.4958 6.72349 11.4913 6.27371 11.4709C5.8577 11.4517 5.63192 11.3822 5.48143 11.3238C5.28232 11.2464 5.1401 11.154 4.99076 11.0046C4.84143 10.8553 4.74898 10.7134 4.67147 10.5142C4.61307 10.364 4.54347 10.1382 4.52453 9.72224C4.50409 9.27245 4.5 9.13733 4.5 7.99795C4.5 6.85856 4.50409 6.72416 4.52453 6.27437C4.54356 5.85837 4.61307 5.63259 4.67147 5.48219C4.7488 5.28307 4.84143 5.14085 4.99076 4.99152C5.1401 4.84218 5.28232 4.74973 5.48143 4.67222C5.63183 4.61356 5.8577 4.54423 6.27371 4.52512C6.66731 4.50733 6.81985 4.502 7.61506 4.50112V4.50218ZM10.2754 5.21081C9.99268 5.21081 9.76335 5.43988 9.76335 5.72264C9.76335 6.00531 9.99268 6.23465 10.2754 6.23465C10.558 6.23465 10.7874 6.00531 10.7874 5.72264C10.7874 5.43996 10.558 5.21062 10.2754 5.21062V5.21081ZM5.80676 7.99978C5.80676 6.78976 6.78779 5.80869 7.9978 5.80865C9.20786 5.80865 10.1887 6.78972 10.1887 7.99978C10.1887 9.20984 9.20795 10.1905 7.99789 10.1905C6.78783 10.1905 5.80676 9.20984 5.80676 7.99978ZM9.4226 7.99981C9.4226 7.21429 8.78579 6.57757 8.00036 6.57757C7.21484 6.57757 6.57812 7.21429 6.57812 7.99981C6.57812 8.78524 7.21484 9.42205 8.00036 9.42205C8.78579 9.42205 9.4226 8.78524 9.4226 7.99981Z" fill="#4F4F4F"/>
</svg>
