<svg width="176" height="26" viewBox="0 0 176 26" fill="none" xmlns="http://www.w3.org/2000/svg">
<path fill-rule="evenodd" clip-rule="evenodd" d="M18.7582 21.7945L10.6388 0H5.99008L4.49366 4.03306L10.9946 21.794C11.3889 22.9041 11.2696 23.9766 8.74915 23.9766V25.4572H21.4349V23.9766C20.3713 23.9766 19.3451 23.4226 18.7582 21.794V21.7945ZM35.0714 23.9076H35.9156V25.4572H23.0908V24.1225C23.5285 24.1128 23.9595 24.0149 24.3556 23.8349C24.6606 23.6596 24.9063 23.4029 25.0632 23.0957C25.22 22.7884 25.2813 22.444 25.2394 22.1039V11.2146C25.2394 9.98767 25.0475 9.62787 23.434 9.66507C23.1393 9.66087 22.8447 9.67207 22.5513 9.69847V8.43759C24.3177 7.8252 27.7758 6.88752 30.0003 6.88752C32.0737 6.88752 32.5724 7.53546 32.5724 9.19379V10.1681C34.3384 8.0051 36.2203 6.88752 38.3321 6.88752C40.291 6.88752 41.8254 8.04065 41.8254 10.0609C41.8533 10.4779 41.791 10.896 41.6427 11.2885C41.4942 11.6811 41.263 12.0395 40.9633 12.3412C40.6637 12.6429 40.3023 12.8812 39.9022 13.041C39.5021 13.2008 39.0719 13.2785 38.639 13.2693C36.1818 13.2693 36.4122 10.746 34.2229 10.746C33.6421 10.773 33.0764 10.9336 32.573 11.2146V22.1039C32.5752 23.1509 33.4199 23.9081 35.0714 23.9081V23.9076ZM44.6236 7.42933H61.0181L61.6714 8.43759L51.6117 23.4735H54.7965C56.0625 23.4488 57.2867 23.0327 58.2892 22.2863C59.2917 21.54 60.0194 20.5028 60.3653 19.3274L61.6714 19.4723L60.8267 25.4572H43.4714L42.8956 24.52L52.9563 9.41137H50.1132C46.9284 9.41137 45.5826 11.3218 44.7786 13.307L43.3591 13.1261L44.6236 7.42933ZM84.0923 23.7994C84.3211 23.8178 84.551 23.8178 84.7798 23.7994L84.8183 24.6293C83.0933 25.5184 81.1699 25.9887 79.2142 25.9995C75.6451 25.9995 74.8752 24.5205 74.8752 22.4297V22.0328C73.6103 24.0525 71.6514 25.9634 68.5793 25.9634C65.6602 25.9634 63.9707 24.2324 63.9707 21.6719C63.9707 18.2459 66.9663 17.0933 70.883 16.3361L74.8752 15.5793V14.9293C74.8752 12.8018 74.0316 11.3961 71.1503 11.3961C68.9737 11.4789 66.812 11.7813 64.7005 12.2982V9.73827C67.965 8.07992 71.6514 6.89017 74.7596 6.89017C80.2097 6.89017 82.2115 9.70267 82.2115 14.4994V21.5647C82.2115 23.3302 82.6294 23.7988 84.0923 23.7988V23.7994ZM74.8752 21.1673V17.0206L72.8799 17.4903C71.5364 17.815 70.5366 18.3547 70.5366 19.6533C70.5366 21.0595 71.7273 21.5281 72.8799 21.5281C73.5609 21.5127 74.2348 21.3906 74.8752 21.1667V21.1673ZM96.8182 23.7994C97.1993 23.993 97.6198 24.1037 98.0501 24.1236V25.4582H86.4131V24.1236C86.8527 24.1143 87.2855 24.0164 87.6835 23.836C87.988 23.6605 88.2331 23.4035 88.3893 23.0963C88.5455 22.789 88.6059 22.4447 88.5634 22.1049V11.2157C88.5634 10.0248 88.3709 9.66607 86.952 9.66607C86.6441 9.66607 86.2976 9.66607 85.8796 9.69947V8.43759C87.645 7.8252 91.0987 6.88752 93.3259 6.88752C95.3993 6.88752 95.8997 7.53546 95.8997 9.19379V10.529C97.9346 8.43759 100.47 6.88752 103.385 6.88752C106.651 6.88752 108.378 8.14891 108.989 10.7083C111.101 8.54426 113.641 6.88752 116.671 6.88752C120.934 6.88752 122.583 9.01496 122.583 13.4853V22.1039C122.553 22.4414 122.623 22.7803 122.786 23.0806C122.948 23.3808 123.197 23.6298 123.501 23.7983C123.883 23.9913 124.304 24.1019 124.733 24.1225V25.4572H113.096V24.1225C113.536 24.1133 113.969 24.0153 114.367 23.8349C114.671 23.6594 114.917 23.4025 115.073 23.0952C115.229 22.788 115.29 22.4436 115.247 22.1039V15.4705C115.247 12.6952 114.791 10.7842 111.832 10.7842C110.894 10.7642 109.963 10.9489 109.11 11.3244C109.234 12.0392 109.299 12.7626 109.302 13.4874V22.106C109.27 22.4437 109.34 22.783 109.503 23.0835C109.666 23.3839 109.915 23.6328 110.221 23.8004C110.6 23.9941 111.018 24.1048 111.447 24.1247V25.4593H99.8159V24.1247C100.253 24.1154 100.684 24.0174 101.081 23.837C101.386 23.662 101.632 23.4053 101.789 23.0981C101.946 22.7909 102.007 22.4462 101.966 22.106V15.4727C101.966 12.6973 101.503 10.7864 98.545 10.7864C97.6362 10.7716 96.7346 10.9433 95.8997 11.29V22.1081C95.8701 22.4451 95.9408 22.7832 96.1035 23.0827C96.2662 23.3822 96.5141 23.6307 96.8182 23.7988V23.7994ZM146.787 23.7994C147.016 23.8178 147.245 23.8178 147.474 23.7994L147.513 24.6293C145.788 25.5184 143.865 25.9887 141.909 25.9995C138.339 25.9995 137.569 24.5205 137.569 22.4297V22.0328C136.305 24.0525 134.342 25.9634 131.272 25.9634C128.358 25.9634 126.664 24.2324 126.664 21.6719C126.664 18.2459 129.661 17.0933 133.577 16.3361L137.569 15.5793V14.9293C137.569 12.8018 136.722 11.3961 133.846 11.3961C131.669 11.4791 129.507 11.7815 127.395 12.2982V9.73827C130.657 8.07992 134.342 6.89017 137.454 6.89017C142.909 6.89017 144.906 9.70267 144.906 14.4994V21.5647C144.906 23.3302 145.329 23.7988 146.787 23.7988V23.7994ZM137.569 21.1673V17.0206L135.573 17.4903C134.231 17.815 133.23 18.3547 133.23 19.6533C133.23 21.0595 134.424 21.5281 135.573 21.5281C136.255 21.5128 136.929 21.3907 137.569 21.1667V21.1673ZM149.273 24.736L149.157 19.5445L150.73 19.3635C152.11 22.176 154.068 24.0525 156.719 24.0525C158.561 24.0525 159.6 23.0442 159.6 21.8529C159.6 20.5904 158.33 20.0486 156.719 19.6533L154.991 19.2208C152.379 18.5712 149.465 16.8413 149.465 13.523C149.465 9.59237 153.457 6.88964 158.907 6.88964C161.091 6.84892 163.251 7.31906 165.204 8.25982L165.589 12.8766L163.747 12.9828C162.059 9.80887 160.288 8.83506 158.407 8.83506C156.757 8.83506 155.91 9.80888 155.91 10.9631C155.91 12.3693 157.027 13.0194 158.522 13.3803L160.634 13.8833C163.17 14.4984 166.243 15.7226 166.243 19.2213C166.243 23.9803 160.673 26 156.031 26C153.717 25.9868 151.425 25.558 149.273 24.7355V24.736ZM172.123 19.744C170.275 19.744 168.24 18.8774 168.24 16.4624C168.24 14.0473 170.275 13.1452 172.123 13.1452C173.921 13.1452 176 14.0473 176 16.4624C176 18.8774 173.921 19.7435 172.123 19.7435V19.744ZM3.61814 20.1229C1.77471 20.1229 0 19.2563 0 16.8413C0 14.4262 1.77471 13.5235 3.61814 13.5235C5.42033 13.5235 7.25277 14.4257 7.25277 16.8413C7.25277 19.2568 5.41758 20.1224 3.61539 20.1224L3.61814 20.1229Z" fill="#BDBDBD"/>
</svg>
